<svg width="22" height="28" viewBox="0 0 22 28" fill="none" xmlns="http://www.w3.org/2000/svg">
<g id="New-concept">
<g id="Desktop-HD-Copy">
<g id="TOP-NAV">
<g id="LOGO">
<g id="Group_135">
<path id="Path_208" d="M16.437 17.4221C16.432 17.8571 16.227 22.0391 10.818 22.0391C5.491 22.0391 5.289 17.8571 5.286 17.4261V2.62812H6.886V16.3881C6.886 18.0201 7.561 20.5061 10.818 20.5061C14.142 20.5061 14.836 18.0201 14.836 16.3881V0.828125H13.036V16.3901C13.1106 17.0064 12.905 17.6237 12.4758 18.0723C12.0466 18.5209 11.439 18.7534 10.82 18.7061C10.2105 18.7438 9.61643 18.5048 9.20283 18.0555C8.78923 17.6062 8.60011 16.9945 8.688 16.3901V0.828125H3.488V17.8051C3.488 17.8661 3.571 23.8461 10.823 23.8461C18.159 23.8461 18.245 17.8661 18.245 17.8051V2.62812H19.845V18.4281C19.845 18.7041 19.502 25.3681 10.822 25.3681C2.142 25.3681 1.801 18.7041 1.8 18.4311V0.828125H0V18.6211C0 18.7071 0.307 27.1721 10.823 27.1721C21.339 27.1721 21.647 18.7071 21.647 18.6211V0.828125H16.442L16.437 17.4221Z" fill="white"/>
</g>
</g>
</g>
</g>
</g>
</svg>
